<svg xmlns="http://www.w3.org/2000/svg" xmlns:xlink="http://www.w3.org/1999/xlink" contentStyleType="text/css" data-diagram-type="CLASS" height="167px" preserveAspectRatio="none" style="width:520px;height:167px;background:#FFFFFF;" version="1.1" viewBox="0 0 520 167" width="520px" zoomAndPan="magnify"><defs/><g><!--cluster ansible--><g class="cluster" data-entity="ansible" data-source-line="1" data-uid="ent0002" id="cluster_ansible"><path d="M8.5,49 L66.3613,49 A3.75,3.75 0 0 1 68.8613,51.5 L75.8613,71.2969 L115.5,71.2969 A2.5,2.5 0 0 1 118,73.7969 L118,133.8 A2.5,2.5 0 0 1 115.5,136.3 L8.5,136.3 A2.5,2.5 0 0 1 6,133.8 L6,51.5 A2.5,2.5 0 0 1 8.5,49" fill="none" style="stroke:#000000;stroke-width:1.5;"/><line style="stroke:#000000;stroke-width:1.5;" x1="6" x2="75.8613" y1="71.2969" y2="71.2969"/><text fill="#000000" font-family="sans-serif" font-size="14" font-weight="bold" lengthAdjust="spacing" textLength="56.8613" x="10" y="63.9951">ansible</text></g><!--cluster docker--><g class="cluster" data-entity="docker" data-source-line="4" data-uid="ent0004" id="cluster_docker"><path d="M144.5,6 L199.1484,6 A3.75,3.75 0 0 1 201.6484,8.5 L208.6484,28.2969 L510.5,28.2969 A2.5,2.5 0 0 1 513,30.7969 L513,157.8 A2.5,2.5 0 0 1 510.5,160.3 L144.5,160.3 A2.5,2.5 0 0 1 142,157.8 L142,8.5 A2.5,2.5 0 0 1 144.5,6" fill="none" style="stroke:#000000;stroke-width:1.5;"/><line style="stroke:#000000;stroke-width:1.5;" x1="142" x2="208.6484" y1="28.2969" y2="28.2969"/><text fill="#000000" font-family="sans-serif" font-size="14" font-weight="bold" lengthAdjust="spacing" textLength="53.6484" x="146" y="20.9951">docker</text></g><!--cluster todo--><g class="cluster" data-entity="todo" data-source-line="5" data-uid="ent0005" id="cluster_todo"><path d="M168.5,49 L205.4502,49 A3.75,3.75 0 0 1 207.9502,51.5 L214.9502,71.2969 L386.5,71.2969 A2.5,2.5 0 0 1 389,73.7969 L389,133.8 A2.5,2.5 0 0 1 386.5,136.3 L168.5,136.3 A2.5,2.5 0 0 1 166,133.8 L166,51.5 A2.5,2.5 0 0 1 168.5,49" fill="none" style="stroke:#000000;stroke-width:1.5;"/><line style="stroke:#000000;stroke-width:1.5;" x1="166" x2="214.9502" y1="71.2969" y2="71.2969"/><text fill="#000000" font-family="sans-serif" font-size="14" font-weight="bold" lengthAdjust="spacing" textLength="35.9502" x="170" y="63.9951">todo</text></g><g class="entity" data-entity="main" data-source-line="2" data-uid="ent0003" id="entity_main"><rect fill="#F1F1F1" height="36.2969" rx="2.5" ry="2.5" style="stroke:#181818;stroke-width:0.5;" width="79.2422" x="22.38" y="84"/><text fill="#000000" font-family="sans-serif" font-size="14" lengthAdjust="spacing" textLength="65.2422" x="29.38" y="98.9951">main.yml</text><line style="stroke:#181818;stroke-width:0.5;" x1="23.38" x2="100.6222" y1="104.2969" y2="104.2969"/></g><g class="entity" data-entity="lubelogger" data-source-line="9" data-uid="ent0008" id="entity_lubelogger"><rect fill="#F1F1F1" height="36.2969" rx="2.5" ry="2.5" style="stroke:#181818;stroke-width:0.5;" width="88.8604" x="408.57" y="84"/><text fill="#000000" font-family="sans-serif" font-size="14" lengthAdjust="spacing" textLength="74.8604" x="415.57" y="98.9951">lubelogger</text><line style="stroke:#181818;stroke-width:0.5;" x1="409.57" x2="496.4304" y1="104.2969" y2="104.2969"/></g><g class="entity" data-entity="portainer" data-source-line="6" data-uid="ent0006" id="entity_portainer"><rect fill="#F1F1F1" height="36.2969" rx="2.5" ry="2.5" style="stroke:#181818;stroke-width:0.5;" width="78.4082" x="181.8" y="84"/><text fill="#000000" font-family="sans-serif" font-size="14" lengthAdjust="spacing" textLength="64.4082" x="188.8" y="98.9951">portainer</text><line style="stroke:#181818;stroke-width:0.5;" x1="182.8" x2="259.2082" y1="104.2969" y2="104.2969"/></g><g class="entity" data-entity="solidtime" data-source-line="7" data-uid="ent0007" id="entity_solidtime"><rect fill="#F1F1F1" height="36.2969" rx="2.5" ry="2.5" style="stroke:#181818;stroke-width:0.5;" width="78.1553" x="294.92" y="84"/><text fill="#000000" font-family="sans-serif" font-size="14" lengthAdjust="spacing" textLength="64.1553" x="301.92" y="98.9951">solidtime</text><line style="stroke:#181818;stroke-width:0.5;" x1="295.92" x2="372.0753" y1="104.2969" y2="104.2969"/></g><!--SRC=[JOrB3e0W34JtdABX0DwfG4FGOWdWmXZkBX9_otbvCvFGBkW9S2t1CC6X0CJCP2leY66TziWQiC0LL5FfzftOXVBG7rJ5oG3lGf9SUuto7nRXu6g8r67xtdWpnE9zbrKx0G00]--></g></svg>